<svg width="1600" height="960" viewBox="0 0 1600 960" fill="none" xmlns="http://www.w3.org/2000/svg">
  <defs>
    <linearGradient id="bgDesk" x1="0" y1="0" x2="1600" y2="960" gradientUnits="userSpaceOnUse">
      <stop stop-color="#F5EFE6"/>
      <stop offset="0.5" stop-color="#E3ECE2"/>
      <stop offset="1" stop-color="#D9E4DA"/>
    </linearGradient>
    <filter id="deskBlur" x="-120" y="-120" width="1840" height="1200" filterUnits="userSpaceOnUse" color-interpolation-filters="sRGB">
      <feGaussianBlur stdDeviation="22"/>
    </filter>
  </defs>
  <rect width="1600" height="960" fill="url(#bgDesk)"/>
  <g filter="url(#deskBlur)" opacity="0.58">
    <rect x="0" y="622" width="1600" height="338" fill="#F5EFE6"/>
    <rect x="184" y="188" width="420" height="302" rx="36" fill="#F8F4EC"/>
    <rect x="662" y="256" width="760" height="236" rx="32" fill="#DCE8DD"/>
    <path d="M1040 592C980 474 920 414 860 412C878 520 938 580 1040 592Z" fill="#6D9F9B" fill-opacity="0.32"/>
    <path d="M1132 614C1060 474 996 398 940 386C974 536 1036 614 1132 614Z" fill="#6D9F9B" fill-opacity="0.24"/>
    <rect x="210" y="640" width="780" height="174" rx="24" fill="#D9E4DA" fill-opacity="0.68"/>
  </g>
  <g opacity="0.18">
    <path d="M210 646H988" stroke="#1F4158" stroke-opacity="0.2" stroke-width="3" stroke-linecap="round"/>
    <path d="M828 650V806" stroke="#1F4158" stroke-opacity="0.18" stroke-width="3" stroke-linecap="round"/>
  </g>
</svg>
