<svg xmlns="http://www.w3.org/2000/svg" viewBox="0 0 800 500" fill="none">
  <defs>
    <linearGradient id="bg" x1="0" y1="0" x2="800" y2="500" gradientUnits="userSpaceOnUse">
      <stop offset="0%" stop-color="#FEF9F0"/>
      <stop offset="55%" stop-color="#FFFCF5"/>
      <stop offset="100%" stop-color="#F6EDD8"/>
    </linearGradient>
    <radialGradient id="bgGlow" cx="50%" cy="45%" r="55%">
      <stop offset="0%" stop-color="#FFFAE8" stop-opacity="0.5"/>
      <stop offset="100%" stop-color="#FFFAE8" stop-opacity="0"/>
    </radialGradient>
    <linearGradient id="tableGrad" x1="0" y1="0" x2="0" y2="1">
      <stop offset="0%" stop-color="#F0E4CC"/>
      <stop offset="100%" stop-color="#DACEB0"/>
    </linearGradient>
    <linearGradient id="glassGrad" x1="265" y1="130" x2="355" y2="130" gradientUnits="userSpaceOnUse">
      <stop offset="0%" stop-color="#FFFFFF" stop-opacity="0.96"/>
      <stop offset="45%" stop-color="#FFFFFF" stop-opacity="0.55"/>
      <stop offset="100%" stop-color="#EDE8E0" stop-opacity="0.9"/>
    </linearGradient>
    <linearGradient id="milkGrad" x1="265" y1="195" x2="355" y2="195" gradientUnits="userSpaceOnUse">
      <stop offset="0%" stop-color="#FFFEF8"/>
      <stop offset="100%" stop-color="#F4EDD5"/>
    </linearGradient>
    <linearGradient id="bottleGrad" x1="450" y1="180" x2="520" y2="180" gradientUnits="userSpaceOnUse">
      <stop offset="0%" stop-color="#FFFEF8" stop-opacity="0.98"/>
      <stop offset="55%" stop-color="#FDFAF2" stop-opacity="0.8"/>
      <stop offset="100%" stop-color="#EAE4D4" stop-opacity="0.95"/>
    </linearGradient>
    <linearGradient id="almondGrad" x1="0" y1="0" x2="0" y2="1">
      <stop offset="0%" stop-color="#D8B878"/>
      <stop offset="100%" stop-color="#B89050"/>
    </linearGradient>
    <linearGradient id="leafGrad" x1="0" y1="0" x2="1" y2="1">
      <stop offset="0%" stop-color="#88C498"/>
      <stop offset="100%" stop-color="#60A870"/>
    </linearGradient>
    <filter id="shadow" x="-15%" y="-10%" width="130%" height="130%">
      <feDropShadow dx="0" dy="5" stdDeviation="8" flood-color="#BCA882" flood-opacity="0.14"/>
    </filter>
  </defs>
  <rect width="800" height="500" fill="url(#bg)"/>
  <circle cx="400" cy="240" r="300" fill="url(#bgGlow)"/>
  <circle cx="620" cy="100" r="110" fill="#FFF5E0" opacity="0.2"/>
  <circle cx="160" cy="380" r="90" fill="#F0E8D0" opacity="0.18"/>
  <rect x="80" y="368" width="640" height="70" rx="4" fill="url(#tableGrad)"/>
  <rect x="80" y="368" width="640" height="6" rx="3" fill="#E8D8BC" opacity="0.6"/>
  <rect x="80" y="374" width="640" height="3" rx="0" fill="#C8B090" opacity="0.2"/>
  <rect x="269" y="122" width="7" height="238" rx="3.5" fill="white" opacity="0.55"/>
  <path d="M272 120 L264 358 Q263 370 276 370 L348 370 Q361 370 360 358 L352 120 Z" fill="url(#glassGrad)" stroke="#DDD6C8" stroke-width="1.5" filter="url(#shadow)"/>
  <path d="M276 195 L268 356 Q267 368 280 368 L344 368 Q357 368 356 356 L348 195 Z" fill="url(#milkGrad)"/>
  <ellipse cx="312" cy="197" rx="36" ry="9" fill="white" opacity="0.92"/>
  <ellipse cx="308" cy="196" rx="18" ry="4" fill="white" opacity="0.65"/>
  <ellipse cx="275" cy="238" rx="2.2" ry="4.5" fill="white" opacity="0.5"/>
  <ellipse cx="280" cy="268" rx="1.8" ry="4" fill="white" opacity="0.42"/>
  <ellipse cx="350" cy="258" rx="2" ry="3.8" fill="white" opacity="0.42"/>
  <ellipse cx="346" cy="290" rx="1.8" ry="3.5" fill="white" opacity="0.38"/>
  <ellipse cx="312" cy="122" rx="40" ry="10" fill="white" opacity="0.75" stroke="#DDD6C8" stroke-width="1"/>
  <ellipse cx="285" cy="108" rx="4.5" ry="7.5" fill="white" opacity="0.58" transform="rotate(-15 285 108)"/>
  <ellipse cx="342" cy="100" rx="4" ry="7" fill="white" opacity="0.52" transform="rotate(20 342 100)"/>
  <circle cx="271" cy="96" r="3.5" fill="white" opacity="0.45"/>
  <circle cx="356" cy="92" r="3" fill="white" opacity="0.4"/>
  <path d="M460 195 Q456 345 458 365 Q458 375 470 375 L515 375 Q527 375 527 365 Q529 345 526 195 Z" fill="url(#bottleGrad)" stroke="#DDD8CC" stroke-width="1.2" filter="url(#shadow)"/>
  <rect x="470" y="165" width="45" height="36" rx="8" fill="#FFFEF8" stroke="#DDD8CC" stroke-width="1.2"/>
  <rect x="476" y="154" width="33" height="16" rx="6" fill="#A8D8B8" stroke="#88C0A0" stroke-width="1"/>
  <ellipse cx="492" cy="164" rx="22" ry="6" fill="#FFFEF8" stroke="#DDD8CC" stroke-width="1"/>
  <rect x="462" y="200" width="6" height="160" rx="3" fill="white" opacity="0.35"/>
  <rect x="462" y="252" width="57" height="72" rx="6" fill="#EAF5EE" opacity="0.65"/>
  <rect x="462" y="252" width="57" height="4" rx="2" fill="#88C0A0" opacity="0.45"/>
  <rect x="462" y="316" width="57" height="4" rx="2" fill="#88C0A0" opacity="0.45"/>
  <rect x="470" y="270" width="40" height="3" rx="1.5" fill="#7AAE8A" opacity="0.3"/>
  <rect x="474" y="278" width="32" height="2.5" rx="1.5" fill="#7AAE8A" opacity="0.22"/>
  <ellipse cx="491" cy="296" rx="12" ry="6" fill="#7AAE8A" opacity="0.22"/>
  <ellipse cx="175" cy="335" rx="22" ry="12" fill="url(#almondGrad)" transform="rotate(-22 175 335)"/>
  <ellipse cx="196" cy="345" rx="20" ry="11" fill="#C89848" transform="rotate(14 196 345)"/>
  <ellipse cx="183" cy="323" rx="18" ry="10" fill="#D4A860" transform="rotate(-38 183 323)"/>
  <ellipse cx="210" cy="332" rx="16" ry="9" fill="#BE9040" transform="rotate(28 210 332)"/>
  <ellipse cx="173" cy="331" rx="8" ry="4" fill="#E8C880" transform="rotate(-22 173 331)" opacity="0.5"/>
  <ellipse cx="194" cy="341" rx="7" ry="3.5" fill="#DEB870" transform="rotate(14 194 341)" opacity="0.45"/>
  <circle cx="618" cy="335" r="11" fill="#D8D888" stroke="#C0C070" stroke-width="1"/>
  <circle cx="636" cy="344" r="10" fill="#D4D480" stroke="#BCBC68" stroke-width="1"/>
  <circle cx="624" cy="322" r="9.5" fill="#DCE082" stroke="#C4C868" stroke-width="1"/>
  <circle cx="645" cy="330" r="8.5" fill="#D0D07C" stroke="#B8B860" stroke-width="1"/>
  <circle cx="608" cy="347" r="8" fill="#D8DC86" stroke="#C0C06C" stroke-width="1"/>
  <path d="M620 330 Q624 322 628 330" stroke="#98A838" stroke-width="1.2" fill="none" opacity="0.35"/>
  <path d="M634 344 Q638 336 642 344" stroke="#949E3A" stroke-width="1.2" fill="none" opacity="0.32"/>
  <path d="M116 380 Q122 316 118 240 Q114 190 120 138" stroke="#88B898" stroke-width="3" fill="none" stroke-linecap="round"/>
  <path d="M119 250 Q94 228 82 204 Q104 212 120 240Z" fill="url(#leafGrad)" opacity="0.58"/>
  <path d="M119 218 Q146 200 158 172 Q138 182 119 210Z" fill="#88C498" opacity="0.54"/>
  <path d="M119 285 Q94 270 82 248 Q102 256 119 276Z" fill="#78B888" opacity="0.52"/>
  <path d="M692 380 Q688 320 692 256 Q696 206 690 156" stroke="#88B898" stroke-width="2.8" fill="none" stroke-linecap="round"/>
  <path d="M691 265 Q716 248 728 224 Q708 232 691 256Z" fill="url(#leafGrad)" opacity="0.56"/>
  <path d="M691 300 Q714 288 724 264 Q706 270 691 292Z" fill="#88C498" opacity="0.52"/>
  <path d="M691 232 Q668 220 656 198 Q674 205 691 224Z" fill="#80B890" opacity="0.5"/>
  <path d="M546 368 Q550 334 548 305" stroke="#78A888" stroke-width="2.2" fill="none" stroke-linecap="round"/>
  <path d="M548 320 Q563 309 568 295 Q556 302 548 316Z" fill="#80B090" opacity="0.55"/>
  <path d="M548 305 Q534 296 528 280 Q540 289 548 301Z" fill="#78A888" opacity="0.52"/>
  <rect x="240" y="60" width="140" height="360" rx="70" fill="#FFFEF0" opacity="0.06" transform="rotate(8 310 240)"/>
  <circle cx="400" cy="158" r="2.5" fill="#88C498" opacity="0.28"/>
  <circle cx="416" cy="145" r="1.8" fill="#88C498" opacity="0.22"/>
  <circle cx="387" cy="145" r="1.8" fill="#88C498" opacity="0.22"/>
</svg>
